<svg id="SvgjsSvg1016" width="288" height="288" xmlns="http://www.w3.org/2000/svg" version="1.1" xmlns:xlink="http://www.w3.org/1999/xlink" xmlns:svgjs="http://svgjs.com/svgjs"><defs id="SvgjsDefs1017"></defs><g id="SvgjsG1018"><svg xmlns="http://www.w3.org/2000/svg" viewBox="0 0 24 24" width="288" height="288"><path d="M12,2A10,10,0,1,0,22,12,10,10,0,0,0,12,2Zm0,18a8,8,0,0,1-8-8A7.92,7.92,0,0,1,5.69,7.1L16.9,18.31A7.92,7.92,0,0,1,12,20Zm6.31-3.1L7.1,5.69A7.92,7.92,0,0,1,12,4a8,8,0,0,1,8,8A7.92,7.92,0,0,1,18.31,16.9Z" fill="#f9561b" class="color000 svgShape"></path></svg></g></svg>