<svg xmlns="http://www.w3.org/2000/svg" xmlns:svgjs="http://svgjs.com/svgjs" xmlns:xlink="http://www.w3.org/1999/xlink" width="288" height="288"><svg xmlns="http://www.w3.org/2000/svg" width="288" height="288" data-name="Layer 1" viewBox="0 0 53 53"><path fill="#efcb68" d="M10.08 10.08a1 1 0 0 0 1.41 1.41 10.43 10.43 0 0 1 14.73 0 1 1 0 0 0 .71.3 1 1 0 0 0 .7-1.71 12.42 12.42 0 0 0-17.55 0Z" class="color000 svgShape"/><path fill="#efcb68" d="M36.22 29.75a1 1 0 0 0-1.41 0L33 31.58l-1.89-1.9A16.35 16.35 0 0 0 7.29 7.29a16.35 16.35 0 0 0 22.39 23.8l1.9 1.9-1.83 1.82a1 1 0 0 0 0 1.41l14 14a1 1 0 0 0 1.41 0l5.06-5.06a1 1 0 0 0 0-1.41ZM8.71 29A14.35 14.35 0 0 1 29 8.71 14.35 14.35 0 0 1 8.71 29Zm35.73 19.09L31.88 35.52l3.64-3.64 12.57 12.56Z" class="color000 svgShape"/></svg></svg>