<svg width="100" height="100" viewBox="0 0 100 100" fill="none" xmlns="http://www.w3.org/2000/svg">
<g clip-path="url(#clip0_1_7)">
<rect width="100" height="100" fill="#404040"/>
<path d="M52.304 94V88.304L70.736 60.208H54.032V52.272H82.32V57.968L63.888 86.064H82.512V94H52.304Z" fill="#EFCB68"/>
<path d="M64.72 28.88L63.696 32.72H72.592L71.632 28.88C71.0773 26.7893 70.5013 24.5707 69.904 22.224C69.3493 19.8773 68.7947 17.616 68.24 15.44H67.984C67.472 17.6587 66.9387 19.9413 66.384 22.288C65.872 24.592 65.3173 26.7893 64.72 28.88ZM49.616 50L62.672 8.272H74L87.056 50H77.072L74.512 40.08H61.776L59.216 50H49.616Z" fill="#EFCB68"/>
<path d="M30.1214 7.87868C28.9498 6.70711 27.0503 6.70711 25.8787 7.87868L6.78684 26.9706C5.61527 28.1421 5.61527 30.0416 6.78684 31.2132C7.95842 32.3848 9.85791 32.3848 11.0295 31.2132L28 14.2426L44.9706 31.2132C46.1422 32.3848 48.0417 32.3848 49.2132 31.2132C50.3848 30.0416 50.3848 28.1421 49.2132 26.9706L30.1214 7.87868ZM31 90L31 10H25L25 90H31Z" fill="#2AAE3E"/>
</g>
<defs>
<clipPath id="clip0_1_7">
<rect width="100" height="100" fill="white"/>
</clipPath>
</defs>
</svg>
