<svg width="100" height="100" viewBox="0 0 100 100" fill="none" xmlns="http://www.w3.org/2000/svg">
<g clip-path="url(#clip0_1_2)">
<rect width="100" height="100" fill="#404040"/>
<path d="M64.72 28.88L63.696 32.72H72.592L71.632 28.88C71.0773 26.7893 70.5013 24.5707 69.904 22.224C69.3493 19.8773 68.7947 17.616 68.24 15.44H67.984C67.472 17.6587 66.9387 19.9413 66.384 22.288C65.872 24.592 65.3173 26.7893 64.72 28.88ZM49.616 50L62.672 8.272H74L87.056 50H77.072L74.512 40.08H61.776L59.216 50H49.616Z" fill="#EFCB68"/>
<path d="M25.8788 92.1213C27.0504 93.2929 28.9498 93.2929 30.1214 92.1213L49.2133 73.0294C50.3849 71.8578 50.3849 69.9583 49.2133 68.7868C48.0417 67.6152 46.1422 67.6152 44.9706 68.7868L28.0001 85.7574L11.0295 68.7868C9.85793 67.6152 7.95844 67.6152 6.78687 68.7868C5.6153 69.9584 5.6153 71.8579 6.78687 73.0295L25.8788 92.1213ZM25 10L25.0001 90L31.0001 90L31 10L25 10Z" fill="#C62F2F"/>
<path d="M53.304 95V89.304L71.736 61.208H55.032V53.272H83.32V58.968L64.888 87.064H83.512V95H53.304Z" fill="#EFCB68"/>
</g>
<defs>
<clipPath id="clip0_1_2">
<rect width="100" height="100" fill="white"/>
</clipPath>
</defs>
</svg>
