<svg width="100" height="100" viewBox="0 0 100 100" fill="none" xmlns="http://www.w3.org/2000/svg">
<rect width="100" height="100" fill="#404040"/>
<path d="M27.8788 92.1213C29.0504 93.2929 30.9498 93.2929 32.1214 92.1213L51.2133 73.0294C52.3849 71.8578 52.3849 69.9583 51.2133 68.7868C50.0417 67.6152 48.1422 67.6152 46.9706 68.7868L30.0001 85.7574L13.0295 68.7868C11.8579 67.6152 9.95844 67.6152 8.78687 68.7868C7.6153 69.9584 7.6153 71.8579 8.78687 73.0295L27.8788 92.1213ZM27 10L27.0001 90L33.0001 90L33 10L27 10Z" fill="#C62F2F"/>
<g clip-path="url(#clip0_1_21)">
<g clip-path="url(#clip1_1_21)">
<path d="M68 10C63.0555 10 58.222 11.4662 54.1108 14.2133C49.9995 16.9603 46.7952 20.8648 44.903 25.4329C43.0108 30.0011 42.5157 35.0277 43.4804 39.8773C44.445 44.7268 46.826 49.1814 50.3223 52.6777C53.8187 56.174 58.2732 58.555 63.1228 59.5196C67.9723 60.4843 72.9989 59.9892 77.5671 58.097C82.1353 56.2048 86.0397 53.0005 88.7867 48.8893C91.5338 44.778 93 39.9445 93 35C92.9928 28.3718 90.3566 22.0171 85.6698 17.3302C80.9829 12.6434 74.6282 10.0072 68 10V10ZM68 55.8333C63.8796 55.8333 59.8517 54.6115 56.4256 52.3223C52.9996 50.0331 50.3293 46.7794 48.7525 42.9726C47.1757 39.1658 46.7631 34.9769 47.567 30.9356C48.3708 26.8944 50.355 23.1822 53.2686 20.2686C56.1822 17.355 59.8944 15.3708 63.9356 14.567C67.9769 13.7631 72.1658 14.1757 75.9726 15.7525C79.7794 17.3293 83.0331 19.9996 85.3223 23.4256C87.6115 26.8516 88.8333 30.8796 88.8333 35C88.8273 40.5235 86.6304 45.819 82.7247 49.7247C78.819 53.6304 73.5235 55.8273 68 55.8333Z" fill="#EFCB68"/>
<path d="M79.4896 39.4646L70.0833 33.8208V22.5C70.0833 21.9475 69.8638 21.4176 69.4731 21.0269C69.0824 20.6362 68.5525 20.4167 68 20.4167C67.4475 20.4167 66.9176 20.6362 66.5269 21.0269C66.1362 21.4176 65.9167 21.9475 65.9167 22.5V35C65.9307 35.3566 66.0297 35.7046 66.2054 36.0152C66.3812 36.3258 66.6286 36.5898 66.9271 36.7854L77.3438 43.0354C77.5784 43.1822 77.8399 43.2808 78.113 43.3255C78.3861 43.3701 78.6654 43.3598 78.9345 43.2953C79.2037 43.2308 79.4572 43.1133 79.6805 42.9497C79.9037 42.7861 80.0921 42.5797 80.2346 42.3425C80.3772 42.1053 80.471 41.842 80.5107 41.5681C80.5504 41.2942 80.5351 41.0152 80.4658 40.7473C80.3964 40.4793 80.2744 40.2279 80.1067 40.0077C79.9391 39.7875 79.7293 39.6028 79.4896 39.4646Z" fill="#EFCB68"/>
</g>
</g>
<defs>
<clipPath id="clip0_1_21">
<rect width="50" height="50" fill="white" transform="translate(43 10)"/>
</clipPath>
<clipPath id="clip1_1_21">
<rect width="50" height="50" fill="white" transform="translate(43 10)"/>
</clipPath>
</defs>
</svg>
