<svg width="100" height="100" viewBox="0 0 100 100" fill="none" xmlns="http://www.w3.org/2000/svg">
<rect width="100" height="100" fill="#404040"/>
<path d="M30.1214 7.87868C28.9498 6.70711 27.0503 6.70711 25.8787 7.87868L6.78685 26.9706C5.61527 28.1421 5.61527 30.0416 6.78685 31.2132C7.95842 32.3848 9.85791 32.3848 11.0295 31.2132L28 14.2426L44.9706 31.2132C46.1422 32.3848 48.0417 32.3848 49.2133 31.2132C50.3848 30.0416 50.3848 28.1421 49.2133 26.9706L30.1214 7.87868ZM31 90L31 10H25L25 90H31Z" fill="#2AAE3E"/>
<g clip-path="url(#clip0_1_25)">
<g clip-path="url(#clip1_1_25)">
<path d="M66 40C61.0555 40 56.222 41.4662 52.1108 44.2133C47.9995 46.9603 44.7952 50.8648 42.903 55.4329C41.0108 60.0011 40.5157 65.0277 41.4804 69.8773C42.445 74.7268 44.826 79.1814 48.3223 82.6777C51.8187 86.174 56.2732 88.555 61.1228 89.5196C65.9723 90.4843 70.9989 89.9892 75.5671 88.097C80.1353 86.2048 84.0397 83.0005 86.7867 78.8893C89.5338 74.778 91 69.9445 91 65C90.9928 58.3718 88.3566 52.0171 83.6698 47.3302C78.9829 42.6434 72.6282 40.0072 66 40V40ZM66 85.8333C61.8796 85.8333 57.8517 84.6115 54.4256 82.3223C50.9996 80.0331 48.3293 76.7794 46.7525 72.9726C45.1757 69.1658 44.7631 64.9769 45.567 60.9356C46.3708 56.8944 48.355 53.1822 51.2686 50.2686C54.1822 47.355 57.8944 45.3708 61.9356 44.567C65.9769 43.7631 70.1658 44.1757 73.9726 45.7525C77.7794 47.3293 81.0331 49.9996 83.3223 53.4256C85.6115 56.8516 86.8333 60.8796 86.8333 65C86.8273 70.5235 84.6304 75.819 80.7247 79.7247C76.819 83.6304 71.5235 85.8273 66 85.8333Z" fill="#EFCB68"/>
<path d="M77.4896 69.4646L68.0833 63.8208V52.5C68.0833 51.9475 67.8638 51.4176 67.4731 51.0269C67.0824 50.6362 66.5525 50.4167 66 50.4167C65.4475 50.4167 64.9176 50.6362 64.5269 51.0269C64.1362 51.4176 63.9167 51.9475 63.9167 52.5V65C63.9307 65.3566 64.0297 65.7046 64.2054 66.0152C64.3812 66.3258 64.6286 66.5898 64.9271 66.7854L75.3437 73.0354C75.5784 73.1822 75.8399 73.2808 76.113 73.3255C76.3861 73.3701 76.6654 73.3598 76.9345 73.2953C77.2037 73.2308 77.4572 73.1133 77.6805 72.9497C77.9037 72.7861 78.0921 72.5797 78.2346 72.3425C78.3772 72.1053 78.471 71.842 78.5107 71.5681C78.5504 71.2942 78.5351 71.0152 78.4658 70.7473C78.3964 70.4793 78.2743 70.2279 78.1067 70.0077C77.9391 69.7875 77.7293 69.6028 77.4896 69.4646Z" fill="#EFCB68"/>
</g>
</g>
<defs>
<clipPath id="clip0_1_25">
<rect width="50" height="50" fill="white" transform="translate(41 40)"/>
</clipPath>
<clipPath id="clip1_1_25">
<rect width="50" height="50" fill="white" transform="translate(41 40)"/>
</clipPath>
</defs>
</svg>
