<svg width="256" height="128" viewBox="0 0 256 128" fill="none" xmlns="http://www.w3.org/2000/svg">
<rect width="256" height="128" fill="#121212"/>
<path d="M130.96 78.08H137.28V79.28H125.12V80.88H132.96V82.48H126.08V84.08H126.96V85.28H126.4V86.08H124.72V86.88H124.64V87.68H126.32V89.28H128.64V89.84C128.64 89.9467 128.613 90.0267 128.56 90.08H114.32C114.267 90.1867 114.24 90.32 114.24 90.48H119.76C119.6 91.0133 119.307 91.4133 118.88 91.68H117.36C117.093 91.8933 116.72 92 116.24 92H74.56C74.1333 92 73.7333 91.8933 73.36 91.68H74.88C74.5067 91.4133 74.2133 91.0133 74 90.48H68.4C68.3467 90.3733 68.32 90.24 68.32 90.08H82.64V89.28H80.32V87.68H78.64V86.88H78.72V86.08H80.4V85.28H80.96V84.08H80.08V82.48H86.96V80.88H79.12V79.28H91.28V78.08H84.96V77.28H86.8V76.48H87.6V75.68H78.72V74.88H76.64V73.68H84.08V73.28H78.16V72.48H79.92V71.68H81.2V70.48H81.04V68.88H80.24V67.28H79.04V66.48H80V64.88H79.12V64.08H80.4V62.88H80.72V61.68H82.16V61.28H80.8V59.68H79.6V58.48H79.92V57.28H80.08V55.68H81.28V54.08H79.52V52.48H79.76V50.88H82V49.68H80.8V48.48H80.16V48.08H83.52V46.88H89.44V46.08H87.04V45.28H79.28V44.88H80.16V43.68H80.24V42.48H80.48V40.88H80.4V38.88H80.24V38.16C80.24 37.9467 80.2667 37.7867 80.32 37.68H79.52C79.7333 36.56 80.4267 36 81.6 36H122.64C123.867 36 124.56 36.56 124.72 37.68H125.52C125.573 37.7867 125.6 37.9467 125.6 38.16V38.88H125.76V40.88H125.84V42.48H125.6V43.68H125.52V44.88H124.64V45.28H132.4V46.08H134.8V46.88H128.88V48.08H125.52V48.48H126.16V49.68H127.36C127.253 50.2133 127.067 50.6133 126.8 50.88H124.56C124.187 51.36 123.653 51.6 122.96 51.6H98.96V52.48H98.72V54.08H100.48V55.68H99.28V56.64H121.52C122.107 56.64 122.613 56.8533 123.04 57.28H122.88C123.147 57.5467 123.333 57.9467 123.44 58.48H123.2V59.68H124.4V61.28H125.76V61.68H124.32V62.88H124V64.08H122.72V64.88H123.6V66.48H122.64V67.28H123.84V68.88H124.64V69.2C124.64 69.7867 124.507 70.2133 124.24 70.48H124.4C123.973 71.0667 123.387 71.36 122.64 71.36H100.4V71.68H99.12V72.48H97.36V73.28H103.28V73.68H95.84V74.88H97.92V75.68H106.8V76.4H131.44C131.707 76.4 131.92 76.4267 132.08 76.48H131.2C131.733 76.64 132.133 76.9067 132.4 77.28H130.56C130.773 77.6 130.907 77.8667 130.96 78.08ZM181.679 89.68V90.08H189.999C189.999 90.3467 189.919 90.6133 189.759 90.88H181.039C180.879 91.2533 180.613 91.52 180.239 91.68H183.919C183.653 91.8933 183.279 92 182.799 92H136.719C136.239 92 135.866 91.8933 135.599 91.68H131.919C131.759 91.5733 131.599 91.4667 131.439 91.36C131.333 91.2 131.226 91.04 131.119 90.88H139.919C139.813 90.6667 139.706 90.4 139.599 90.08H131.279V89.68H139.999V88.48H133.199V88.08H128.639V86.88H138.079V85.68H129.359V84.08H132.319V83.28H134.719V81.68H133.519V81.52C133.519 81.4133 133.519 81.2267 133.519 80.96C133.573 80.6933 133.626 80.4 133.679 80.08H137.599C137.653 79.8667 137.706 79.68 137.759 79.52C137.866 79.3067 137.946 79.0933 137.999 78.88H132.719C132.826 78.7733 132.906 78.64 132.959 78.48C133.066 78.32 133.173 78.1867 133.279 78.08H133.599C133.866 77.76 134.159 77.4667 134.479 77.2L135.359 76.56C135.413 76.56 135.439 76.56 135.439 76.56C135.439 76.5067 135.466 76.48 135.519 76.48H135.439C135.653 76.3733 135.839 76.24 135.999 76.08C136.159 75.92 136.346 75.7867 136.559 75.68H136.959C137.066 75.5733 137.173 75.4933 137.279 75.44C137.386 75.3867 137.466 75.3333 137.519 75.28H137.599C137.866 75.0667 138.133 74.88 138.399 74.72C138.719 74.5067 138.986 74.2933 139.199 74.08H138.479C138.693 73.9733 138.879 73.84 139.039 73.68C139.199 73.52 139.386 73.3867 139.599 73.28H139.839L141.519 72.08H142.319C142.693 71.8133 143.039 71.5467 143.359 71.28C143.733 70.96 144.106 70.6933 144.479 70.48H141.359C141.733 70.2133 142.079 69.9467 142.399 69.68C142.773 69.36 143.146 69.0933 143.519 68.88H146.719C146.826 68.7733 146.933 68.6933 147.039 68.64C147.146 68.5867 147.226 68.5333 147.279 68.48H147.679C147.893 68.3733 148.079 68.24 148.239 68.08C148.399 67.92 148.586 67.7867 148.799 67.68H144.959C145.386 67.4133 145.759 67.1467 146.079 66.88C146.453 66.56 146.799 66.2933 147.119 66.08H146.719L147.199 65.68H150.159C150.266 65.5733 150.373 65.4933 150.479 65.44C150.586 65.3867 150.666 65.3333 150.719 65.28H144.159L146.239 63.68H153.919L154.399 63.28H148.479L149.919 62.08H153.439L154.399 61.28H149.999C150.319 61.0133 150.613 60.7467 150.879 60.48C151.199 60.16 151.466 59.8933 151.679 59.68H159.679C159.786 59.5733 159.866 59.4933 159.919 59.44C159.973 59.3867 160.026 59.3333 160.079 59.28H157.839C157.999 59.1733 158.133 59.04 158.239 58.88C158.399 58.72 158.533 58.5867 158.639 58.48H150.079C150.506 58.0533 150.826 57.6533 151.039 57.28H156.399L157.279 55.68H159.999C160.266 55.04 160.399 54.5067 160.399 54.08H162.959V53.68H164.959C164.959 53.4667 164.959 53.28 164.959 53.12C164.959 52.9067 164.933 52.6933 164.879 52.48H162.079L161.919 52.08H157.199L156.959 52.48H158.799C158.693 52.6933 158.586 52.9067 158.479 53.12C158.426 53.28 158.346 53.4667 158.239 53.68H155.119L154.959 54.08H153.359C153.306 54.1867 153.279 54.2933 153.279 54.4C153.279 54.5067 153.253 54.6133 153.199 54.72C153.146 54.9333 153.066 55.12 152.959 55.28C152.853 55.44 152.746 55.5733 152.639 55.68H146.479C146.159 56.0533 145.759 56.2933 145.279 56.4C144.853 56.5067 144.373 56.56 143.839 56.56H128.799C128.106 56.56 127.599 56.2667 127.279 55.68H133.439C133.279 55.4133 133.199 55.12 133.199 54.8V54.08H134.799V53.68H137.919C137.919 53.4667 137.919 53.28 137.919 53.12C137.973 52.9067 137.999 52.6933 137.999 52.48H136.159C136.159 52.32 136.186 52.1867 136.239 52.08H133.359C133.359 51.9733 133.359 51.8933 133.359 51.84C133.413 51.7867 133.439 51.7333 133.439 51.68H127.359C127.413 51.5733 127.439 51.44 127.439 51.28C127.439 51.12 127.466 50.9867 127.519 50.88H133.839L134.239 49.28H133.119C133.119 49.2267 133.173 49.0933 133.279 48.88H125.039C125.093 48.6667 125.173 48.48 125.279 48.32C125.333 48.1067 125.386 47.8933 125.439 47.68H137.759C137.866 47.4667 137.973 47.28 138.079 47.12C138.186 46.9067 138.266 46.6933 138.319 46.48H129.439C129.599 46.2133 129.759 45.9467 129.919 45.68C130.079 45.36 130.239 45.0933 130.399 44.88H132.079C132.186 44.7733 132.293 44.64 132.399 44.48C132.506 44.32 132.586 44.1867 132.639 44.08H137.679C137.839 43.92 137.946 43.7867 137.999 43.68H133.359C133.466 43.5733 133.573 43.44 133.679 43.28C133.786 43.12 133.893 42.9867 133.999 42.88H138.079L138.479 42.48H137.919C138.399 41.8933 138.933 41.36 139.519 40.88H141.359L141.839 40.48H137.999L138.479 40.08H141.199C141.413 39.9733 141.599 39.84 141.759 39.68C141.973 39.52 142.159 39.3867 142.319 39.28H147.119L148.399 38.48H151.599C152.133 38.16 152.666 37.8667 153.199 37.6C153.786 37.3333 154.373 37.0933 154.959 36.88H147.119C147.279 36.7733 147.439 36.6933 147.599 36.64C147.813 36.5867 147.999 36.5333 148.159 36.48H145.199C145.466 36.3733 145.679 36.2933 145.839 36.24C146.053 36.1867 146.266 36.1333 146.479 36.08H160.719C163.439 35.28 166.399 34.88 169.599 34.88C173.279 34.88 176.559 35.28 179.439 36.08H165.199C165.466 36.1333 165.706 36.1867 165.919 36.24C166.133 36.2933 166.346 36.3733 166.559 36.48H169.519C169.733 36.5333 169.919 36.5867 170.079 36.64C170.293 36.6933 170.479 36.7733 170.639 36.88H178.479C179.119 37.0933 179.706 37.3333 180.239 37.6C180.826 37.8667 181.386 38.16 181.919 38.48H178.719C178.933 38.5867 179.146 38.72 179.359 38.88C179.573 39.04 179.786 39.1733 179.999 39.28H175.199L176.239 40.08H173.439L173.919 40.48H177.839L178.319 40.88H176.399C176.666 41.0933 176.933 41.36 177.199 41.68C177.466 41.9467 177.706 42.2133 177.919 42.48H178.479C178.533 42.5333 178.586 42.5867 178.639 42.64C178.693 42.6933 178.746 42.7733 178.799 42.88H174.719C174.826 42.9867 174.906 43.12 174.959 43.28C175.066 43.44 175.173 43.5733 175.279 43.68H179.919L180.159 44.08H175.119C175.279 44.3467 175.413 44.6133 175.519 44.88H173.839L174.559 46.48H183.439C183.546 46.6933 183.626 46.9067 183.679 47.12C183.733 47.28 183.786 47.4667 183.839 47.68H171.519C171.626 47.8933 171.679 48.1067 171.679 48.32C171.733 48.48 171.786 48.6667 171.839 48.88H180.079C180.079 48.9333 180.079 48.9867 180.079 49.04C180.133 49.0933 180.159 49.1733 180.159 49.28H181.279C181.439 49.8133 181.519 50.3467 181.519 50.88H185.519L185.599 51.68H178.239C178.293 51.7867 178.319 51.92 178.319 52.08H183.119V52.48H185.919V53.68H183.919C183.919 53.84 183.893 53.9733 183.839 54.08H181.279C181.279 54.3467 181.253 54.6133 181.199 54.88C181.199 55.1467 181.173 55.4133 181.119 55.68H178.399C178.346 55.9467 178.293 56.2133 178.239 56.48C178.186 56.7467 178.106 57.0133 177.999 57.28H172.719C172.666 57.4933 172.613 57.7067 172.559 57.92C172.506 58.08 172.426 58.2667 172.319 58.48H180.799L180.479 59.28H182.719L182.479 59.68H174.479C174.373 59.9467 174.239 60.2133 174.079 60.48C173.919 60.7467 173.786 61.0133 173.679 61.28H177.999C177.946 61.3867 177.866 61.52 177.759 61.68C177.706 61.84 177.626 61.9733 177.519 62.08H173.999L173.199 63.28H179.039L178.799 63.68H171.119L169.759 65.28H176.239C176.186 65.3333 176.133 65.3867 176.079 65.44C176.026 65.4933 175.973 65.5733 175.919 65.68H172.959L172.559 66.08H173.039L171.359 67.68H175.119C175.013 67.7867 174.879 67.92 174.719 68.08C174.559 68.24 174.399 68.3733 174.239 68.48H173.839L173.439 68.88H170.239L168.319 70.48H171.439C171.119 70.7467 170.773 71.0133 170.399 71.28C170.079 71.5467 169.733 71.8133 169.359 72.08H168.639L166.959 73.28H166.719C166.506 73.3867 166.293 73.52 166.079 73.68C165.919 73.84 165.759 73.9733 165.599 74.08H166.319C166.106 74.24 165.866 74.4267 165.599 74.64C165.333 74.8 165.066 74.96 164.799 75.12L164.639 75.28H164.559L164.239 75.52H181.119C181.333 75.52 181.599 75.5733 181.919 75.68H181.519C181.839 75.84 182.159 76.1067 182.479 76.48H182.559C182.773 76.7467 182.879 77.1467 182.879 77.68V78.08H182.559V78.88H187.839V80.08H183.919V81.68H185.119V83.28H182.719V84.08H179.759V85.68H188.479V86.88H179.039V88.08H183.599V88.48H190.399V89.68H181.679ZM156.959 51.68H164.239C164.026 51.3067 163.706 51.04 163.279 50.88H159.279C158.959 50.72 158.453 50.64 157.759 50.64C157.226 50.64 156.746 50.72 156.319 50.88H149.999C149.733 50.9333 149.493 51.04 149.279 51.2C149.066 51.36 148.853 51.52 148.639 51.68H154.719C154.666 51.7333 154.613 51.7867 154.559 51.84C154.506 51.8933 154.453 51.9733 154.399 52.08H157.119C157.119 52.0267 157.066 51.8933 156.959 51.68ZM240.648 78.08H246.968V79.28H234.808V80.88H242.648V82.48H235.768V84.08H236.648V85.28H236.088V86.08H234.408V86.88H234.328V87.68H236.008V89.28H238.328V89.84C238.328 89.9467 238.301 90.0267 238.248 90.08H224.008C223.954 90.1867 223.928 90.32 223.928 90.48H229.448C229.288 91.0133 228.994 91.4133 228.568 91.68H227.048C226.781 91.8933 226.408 92 225.928 92H184.247C183.821 92 183.421 91.8933 183.048 91.68H184.567C184.194 91.4133 183.901 91.0133 183.687 90.48H178.087C178.034 90.3733 178.007 90.24 178.007 90.08H192.328V89.28H190.008V87.68H188.327V86.88H188.408V86.08H190.088V85.28H190.648V84.08H189.768V82.48H196.648V80.88H188.808V79.28H200.968V78.08H194.648V77.28H196.488V76.48H197.288V75.68H188.408V74.88H186.328V73.68H193.768V73.28H187.848V72.48H189.608V71.68H190.888V70.48H190.728V68.88H189.928V67.28H188.728V66.48H189.688V64.88H188.808V64.08H190.088V62.88H190.408V61.68H191.848V61.28H190.488V59.68H189.288V58.48H189.608V57.28H189.768V55.68H190.967V54.08H189.208V52.48H189.448V50.88H191.688V49.68H190.488V48.48H189.848V48.08H193.208V46.88H199.128V46.08H196.728V45.28H188.968V44.88H189.848V43.68H189.928V42.48H190.168V40.88H190.088V38.88H189.928V38.16C189.928 37.9467 189.954 37.7867 190.008 37.68H189.208C189.421 36.56 190.114 36 191.288 36H232.328C233.554 36 234.248 36.56 234.408 37.68H235.208C235.261 37.7867 235.288 37.9467 235.288 38.16V38.88H235.448V40.88H235.528V42.48H235.288V43.68H235.208V44.88H234.328V45.28H242.088V46.08H244.488V46.88H238.568V48.08H235.208V48.48H235.848V49.68H237.048C236.941 50.2133 236.754 50.6133 236.488 50.88H234.248C233.874 51.36 233.341 51.6 232.648 51.6H208.648V52.48H208.408V54.08H210.168V55.68H208.968V56.64H231.208C231.794 56.64 232.301 56.8533 232.727 57.28H232.568C232.834 57.5467 233.021 57.9467 233.128 58.48H232.888V59.68H234.088V61.28H235.448V61.68H234.008V62.88H233.688V64.08H232.408V64.88H233.288V66.48H232.328V67.28H233.528V68.88H234.328V69.2C234.328 69.7867 234.194 70.2133 233.928 70.48H234.088C233.661 71.0667 233.074 71.36 232.328 71.36H210.088V71.68H208.808V72.48H207.048V73.28H212.968V73.68H205.528V74.88H207.608V75.68H216.488V76.4H241.128C241.394 76.4 241.608 76.4267 241.768 76.48H240.888C241.421 76.64 241.821 76.9067 242.088 77.28H240.248C240.461 77.6 240.594 77.8667 240.648 78.08Z" fill="#EFCB68"/>
<g clip-path="url(#clip0_1_2)">
<g clip-path="url(#clip1_1_2)">
<mask id="path-2-outside-1_1_2" maskUnits="userSpaceOnUse" x="18.2216" y="33.4062" width="54" height="61" fill="black">
<rect fill="white" x="18.2216" y="33.4062" width="54" height="61"/>
<path fill-rule="evenodd" clip-rule="evenodd" d="M45.4216 35.4062C44.5519 35.4082 43.7185 35.7546 43.1036 36.3695C42.4886 36.9844 42.1423 37.8179 42.1403 38.6875C42.1403 40.3338 43.3684 41.6903 44.9528 41.9219V48.7281L32.4297 55.96L26.5337 52.5559C27.1272 51.0681 26.5666 49.3253 25.1406 48.5022C24.3865 48.0691 23.4916 47.9523 22.6516 48.1774C21.8116 48.4024 21.095 48.951 20.6584 49.7031C20.2254 50.4572 20.1086 51.3522 20.3336 52.1921C20.5587 53.0321 21.1073 53.7488 21.8594 54.1853C23.2844 55.0084 25.0731 54.6231 26.065 53.3669L31.9628 56.7709V71.2309L26.0669 74.6331C25.075 73.3769 23.2872 72.9916 21.8612 73.8147C21.1092 74.2512 20.5606 74.9679 20.3355 75.8079C20.1104 76.6479 20.2272 77.5428 20.6603 78.2969C21.0969 79.049 21.8135 79.5976 22.6535 79.8226C23.4935 80.0477 24.3884 79.9309 25.1425 79.4978C26.5675 78.6747 27.1281 76.9328 26.5356 75.4459L32.4325 72.0428L44.9528 79.2709V86.0791C43.3684 86.3097 42.1403 87.6662 42.1403 89.3125C42.1403 91.1191 43.615 92.5938 45.4216 92.5938C47.2281 92.5938 48.7028 91.1191 48.7028 89.3125C48.7028 87.6662 47.4747 86.3097 45.8903 86.0781V79.2719L58.4106 72.0419L64.3075 75.4459C63.7141 76.9328 64.2766 78.6747 65.7025 79.4978C66.4565 79.9306 67.3512 80.0472 68.191 79.8222C69.0307 79.5971 69.7472 79.0487 70.1838 78.2969C70.6169 77.5429 70.7338 76.648 70.509 75.8081C70.2841 74.9681 69.7357 74.2514 68.9837 73.8147C67.5578 72.9916 65.7691 73.3778 64.7772 74.635L58.8812 71.2281V56.7709L64.7781 53.3678C65.7691 54.6241 67.5578 55.0084 68.9837 54.1853C69.7357 53.7486 70.2841 53.0319 70.509 52.1919C70.7338 51.352 70.6169 50.4571 70.1838 49.7031C69.7472 48.9513 69.0307 48.4029 68.191 48.1778C67.3512 47.9528 66.4565 48.0694 65.7025 48.5022C64.2775 49.3244 63.7169 51.0672 64.3084 52.5541L58.4116 55.9572L45.8903 48.7291V41.9209C47.4747 41.6903 48.7028 40.3338 48.7028 38.6875C48.7028 36.8809 47.2281 35.4062 45.4216 35.4062ZM45.4216 36.3438C46.7209 36.3438 47.7653 37.3872 47.7653 38.6875C47.7653 39.9878 46.7209 41.0312 45.4216 41.0312C45.1135 41.0322 44.8083 40.9723 44.5235 40.8549C44.2387 40.7374 43.9799 40.5648 43.7621 40.347C43.5442 40.1292 43.3716 39.8704 43.2542 39.5856C43.1368 39.3008 43.0768 38.9956 43.0778 38.6875C43.0778 37.3872 44.1212 36.3438 45.4216 36.3438ZM23.335 49.0037C23.785 48.9728 24.25 49.0712 24.6719 49.315C24.939 49.4682 25.1733 49.6727 25.3611 49.9167C25.5489 50.1608 25.6866 50.4396 25.7662 50.737C25.8459 51.0345 25.8659 51.3448 25.8251 51.65C25.7844 51.9553 25.6836 52.2495 25.5287 52.5156C25.3756 52.7829 25.1712 53.0172 24.9272 53.2051C24.6832 53.393 24.4045 53.5309 24.107 53.6107C23.8096 53.6905 23.4993 53.7107 23.194 53.6701C22.8887 53.6296 22.5944 53.5291 22.3281 53.3744C22.0608 53.2211 21.8265 53.0165 21.6385 52.7723C21.4506 52.5282 21.3127 52.2493 21.2329 51.9517C21.1531 51.6541 21.1329 51.3436 21.1735 51.0382C21.2141 50.7327 21.3146 50.4383 21.4694 50.1719C21.6604 49.8389 21.9306 49.5581 22.256 49.3543C22.5814 49.1506 22.952 49.0302 23.335 49.0037ZM67.5072 49.0037C68.2572 49.0562 68.9669 49.4678 69.3728 50.1719C69.5276 50.4383 69.6282 50.7326 69.6688 51.038C69.7095 51.3434 69.6894 51.6539 69.6097 51.9515C69.5299 52.2491 69.3922 52.528 69.2043 52.7722C69.0165 53.0164 68.7822 53.221 68.515 53.3744C67.3891 54.0241 65.9641 53.6416 65.3144 52.5156C65.1595 52.2495 65.0587 51.9553 65.018 51.65C64.9772 51.3448 64.9972 51.0345 65.0769 50.737C65.1565 50.4396 65.2942 50.1608 65.482 49.9167C65.6699 49.6727 65.9041 49.4682 66.1712 49.315C66.5931 49.0712 67.0581 48.9728 67.5072 49.0037ZM45.4216 49.5419L57.9437 56.77V71.2309L45.4216 78.4581L32.8984 71.2291V56.7691L45.4216 49.5419ZM23.665 74.3162C24.415 74.3688 25.1247 74.7803 25.5306 75.4844C25.6856 75.7507 25.7863 76.045 25.8271 76.3504C25.8679 76.6558 25.8479 76.9662 25.7683 77.2638C25.6886 77.5615 25.5509 77.8404 25.3631 78.0846C25.1752 78.3289 24.941 78.5335 24.6737 78.6869C24.4073 78.8416 24.1129 78.9422 23.8075 78.9827C23.502 79.0233 23.1916 79.0031 22.894 78.9233C22.5963 78.8435 22.3174 78.7057 22.0733 78.5177C21.8291 78.3298 21.6245 78.0954 21.4712 77.8281C21.3166 77.5618 21.216 77.2676 21.1755 76.9623C21.1349 76.657 21.1551 76.3467 21.2349 76.0492C21.3148 75.7517 21.4526 75.473 21.6405 75.229C21.8285 74.985 22.0628 74.7806 22.33 74.6275C22.7338 74.3925 23.1989 74.2841 23.665 74.3162ZM67.1781 74.3162C67.6281 74.2853 68.0922 74.3837 68.515 74.6275C68.7822 74.7807 69.0164 74.9852 69.2042 75.2292C69.392 75.4733 69.5297 75.7521 69.6094 76.0495C69.689 76.347 69.709 76.6573 69.6683 76.9625C69.6275 77.2678 69.5268 77.562 69.3719 77.8281C69.2188 78.0954 69.0143 78.3297 68.7704 78.5176C68.5264 78.7055 68.2476 78.8434 67.9502 78.9232C67.6527 79.003 67.3424 79.0232 67.0371 78.9826C66.7318 78.9421 66.4376 78.8416 66.1712 78.6869C65.904 78.5336 65.6696 78.329 65.4816 78.0848C65.2937 77.8407 65.1558 77.5618 65.076 77.2642C64.9962 76.9666 64.976 76.6561 65.0166 76.3507C65.0572 76.0452 65.1578 75.7508 65.3125 75.4844C65.5035 75.1514 65.7737 74.8706 66.0991 74.6668C66.4245 74.4631 66.7951 74.3427 67.1781 74.3162ZM45.4216 86.9688C46.7209 86.9688 47.7653 88.0122 47.7653 89.3125C47.7653 90.6128 46.7209 91.6562 45.4216 91.6562C45.1135 91.6572 44.8083 91.5973 44.5235 91.4799C44.2387 91.3624 43.9799 91.1898 43.7621 90.972C43.5442 90.7542 43.3716 90.4954 43.2542 90.2106C43.1368 89.9258 43.0768 89.6206 43.0778 89.3125C43.0778 88.0122 44.1212 86.9688 45.4216 86.9688Z"/>
</mask>
<path fill-rule="evenodd" clip-rule="evenodd" d="M45.4216 35.4062C44.5519 35.4082 43.7185 35.7546 43.1036 36.3695C42.4886 36.9844 42.1423 37.8179 42.1403 38.6875C42.1403 40.3338 43.3684 41.6903 44.9528 41.9219V48.7281L32.4297 55.96L26.5337 52.5559C27.1272 51.0681 26.5666 49.3253 25.1406 48.5022C24.3865 48.0691 23.4916 47.9523 22.6516 48.1774C21.8116 48.4024 21.095 48.951 20.6584 49.7031C20.2254 50.4572 20.1086 51.3522 20.3336 52.1921C20.5587 53.0321 21.1073 53.7488 21.8594 54.1853C23.2844 55.0084 25.0731 54.6231 26.065 53.3669L31.9628 56.7709V71.2309L26.0669 74.6331C25.075 73.3769 23.2872 72.9916 21.8612 73.8147C21.1092 74.2512 20.5606 74.9679 20.3355 75.8079C20.1104 76.6479 20.2272 77.5428 20.6603 78.2969C21.0969 79.049 21.8135 79.5976 22.6535 79.8226C23.4935 80.0477 24.3884 79.9309 25.1425 79.4978C26.5675 78.6747 27.1281 76.9328 26.5356 75.4459L32.4325 72.0428L44.9528 79.2709V86.0791C43.3684 86.3097 42.1403 87.6662 42.1403 89.3125C42.1403 91.1191 43.615 92.5938 45.4216 92.5938C47.2281 92.5938 48.7028 91.1191 48.7028 89.3125C48.7028 87.6662 47.4747 86.3097 45.8903 86.0781V79.2719L58.4106 72.0419L64.3075 75.4459C63.7141 76.9328 64.2766 78.6747 65.7025 79.4978C66.4565 79.9306 67.3512 80.0472 68.191 79.8222C69.0307 79.5971 69.7472 79.0487 70.1838 78.2969C70.6169 77.5429 70.7338 76.648 70.509 75.8081C70.2841 74.9681 69.7357 74.2514 68.9837 73.8147C67.5578 72.9916 65.7691 73.3778 64.7772 74.635L58.8812 71.2281V56.7709L64.7781 53.3678C65.7691 54.6241 67.5578 55.0084 68.9837 54.1853C69.7357 53.7486 70.2841 53.0319 70.509 52.1919C70.7338 51.352 70.6169 50.4571 70.1838 49.7031C69.7472 48.9513 69.0307 48.4029 68.191 48.1778C67.3512 47.9528 66.4565 48.0694 65.7025 48.5022C64.2775 49.3244 63.7169 51.0672 64.3084 52.5541L58.4116 55.9572L45.8903 48.7291V41.9209C47.4747 41.6903 48.7028 40.3338 48.7028 38.6875C48.7028 36.8809 47.2281 35.4062 45.4216 35.4062ZM45.4216 36.3438C46.7209 36.3438 47.7653 37.3872 47.7653 38.6875C47.7653 39.9878 46.7209 41.0312 45.4216 41.0312C45.1135 41.0322 44.8083 40.9723 44.5235 40.8549C44.2387 40.7374 43.9799 40.5648 43.7621 40.347C43.5442 40.1292 43.3716 39.8704 43.2542 39.5856C43.1368 39.3008 43.0768 38.9956 43.0778 38.6875C43.0778 37.3872 44.1212 36.3438 45.4216 36.3438ZM23.335 49.0037C23.785 48.9728 24.25 49.0712 24.6719 49.315C24.939 49.4682 25.1733 49.6727 25.3611 49.9167C25.5489 50.1608 25.6866 50.4396 25.7662 50.737C25.8459 51.0345 25.8659 51.3448 25.8251 51.65C25.7844 51.9553 25.6836 52.2495 25.5287 52.5156C25.3756 52.7829 25.1712 53.0172 24.9272 53.2051C24.6832 53.393 24.4045 53.5309 24.107 53.6107C23.8096 53.6905 23.4993 53.7107 23.194 53.6701C22.8887 53.6296 22.5944 53.5291 22.3281 53.3744C22.0608 53.2211 21.8265 53.0165 21.6385 52.7723C21.4506 52.5282 21.3127 52.2493 21.2329 51.9517C21.1531 51.6541 21.1329 51.3436 21.1735 51.0382C21.2141 50.7327 21.3146 50.4383 21.4694 50.1719C21.6604 49.8389 21.9306 49.5581 22.256 49.3543C22.5814 49.1506 22.952 49.0302 23.335 49.0037ZM67.5072 49.0037C68.2572 49.0562 68.9669 49.4678 69.3728 50.1719C69.5276 50.4383 69.6282 50.7326 69.6688 51.038C69.7095 51.3434 69.6894 51.6539 69.6097 51.9515C69.5299 52.2491 69.3922 52.528 69.2043 52.7722C69.0165 53.0164 68.7822 53.221 68.515 53.3744C67.3891 54.0241 65.9641 53.6416 65.3144 52.5156C65.1595 52.2495 65.0587 51.9553 65.018 51.65C64.9772 51.3448 64.9972 51.0345 65.0769 50.737C65.1565 50.4396 65.2942 50.1608 65.482 49.9167C65.6699 49.6727 65.9041 49.4682 66.1712 49.315C66.5931 49.0712 67.0581 48.9728 67.5072 49.0037ZM45.4216 49.5419L57.9437 56.77V71.2309L45.4216 78.4581L32.8984 71.2291V56.7691L45.4216 49.5419ZM23.665 74.3162C24.415 74.3688 25.1247 74.7803 25.5306 75.4844C25.6856 75.7507 25.7863 76.045 25.8271 76.3504C25.8679 76.6558 25.8479 76.9662 25.7683 77.2638C25.6886 77.5615 25.5509 77.8404 25.3631 78.0846C25.1752 78.3289 24.941 78.5335 24.6737 78.6869C24.4073 78.8416 24.1129 78.9422 23.8075 78.9827C23.502 79.0233 23.1916 79.0031 22.894 78.9233C22.5963 78.8435 22.3174 78.7057 22.0733 78.5177C21.8291 78.3298 21.6245 78.0954 21.4712 77.8281C21.3166 77.5618 21.216 77.2676 21.1755 76.9623C21.1349 76.657 21.1551 76.3467 21.2349 76.0492C21.3148 75.7517 21.4526 75.473 21.6405 75.229C21.8285 74.985 22.0628 74.7806 22.33 74.6275C22.7338 74.3925 23.1989 74.2841 23.665 74.3162ZM67.1781 74.3162C67.6281 74.2853 68.0922 74.3837 68.515 74.6275C68.7822 74.7807 69.0164 74.9852 69.2042 75.2292C69.392 75.4733 69.5297 75.7521 69.6094 76.0495C69.689 76.347 69.709 76.6573 69.6683 76.9625C69.6275 77.2678 69.5268 77.562 69.3719 77.8281C69.2188 78.0954 69.0143 78.3297 68.7704 78.5176C68.5264 78.7055 68.2476 78.8434 67.9502 78.9232C67.6527 79.003 67.3424 79.0232 67.0371 78.9826C66.7318 78.9421 66.4376 78.8416 66.1712 78.6869C65.904 78.5336 65.6696 78.329 65.4816 78.0848C65.2937 77.8407 65.1558 77.5618 65.076 77.2642C64.9962 76.9666 64.976 76.6561 65.0166 76.3507C65.0572 76.0452 65.1578 75.7508 65.3125 75.4844C65.5035 75.1514 65.7737 74.8706 66.0991 74.6668C66.4245 74.4631 66.7951 74.3427 67.1781 74.3162ZM45.4216 86.9688C46.7209 86.9688 47.7653 88.0122 47.7653 89.3125C47.7653 90.6128 46.7209 91.6562 45.4216 91.6562C45.1135 91.6572 44.8083 91.5973 44.5235 91.4799C44.2387 91.3624 43.9799 91.1898 43.7621 90.972C43.5442 90.7542 43.3716 90.4954 43.2542 90.2106C43.1368 89.9258 43.0768 89.6206 43.0778 89.3125C43.0778 88.0122 44.1212 86.9688 45.4216 86.9688Z" fill="#EFCB68"/>
<path fill-rule="evenodd" clip-rule="evenodd" d="M45.4216 35.4062C44.5519 35.4082 43.7185 35.7546 43.1036 36.3695C42.4886 36.9844 42.1423 37.8179 42.1403 38.6875C42.1403 40.3338 43.3684 41.6903 44.9528 41.9219V48.7281L32.4297 55.96L26.5337 52.5559C27.1272 51.0681 26.5666 49.3253 25.1406 48.5022C24.3865 48.0691 23.4916 47.9523 22.6516 48.1774C21.8116 48.4024 21.095 48.951 20.6584 49.7031C20.2254 50.4572 20.1086 51.3522 20.3336 52.1921C20.5587 53.0321 21.1073 53.7488 21.8594 54.1853C23.2844 55.0084 25.0731 54.6231 26.065 53.3669L31.9628 56.7709V71.2309L26.0669 74.6331C25.075 73.3769 23.2872 72.9916 21.8612 73.8147C21.1092 74.2512 20.5606 74.9679 20.3355 75.8079C20.1104 76.6479 20.2272 77.5428 20.6603 78.2969C21.0969 79.049 21.8135 79.5976 22.6535 79.8226C23.4935 80.0477 24.3884 79.9309 25.1425 79.4978C26.5675 78.6747 27.1281 76.9328 26.5356 75.4459L32.4325 72.0428L44.9528 79.2709V86.0791C43.3684 86.3097 42.1403 87.6662 42.1403 89.3125C42.1403 91.1191 43.615 92.5938 45.4216 92.5938C47.2281 92.5938 48.7028 91.1191 48.7028 89.3125C48.7028 87.6662 47.4747 86.3097 45.8903 86.0781V79.2719L58.4106 72.0419L64.3075 75.4459C63.7141 76.9328 64.2766 78.6747 65.7025 79.4978C66.4565 79.9306 67.3512 80.0472 68.191 79.8222C69.0307 79.5971 69.7472 79.0487 70.1838 78.2969C70.6169 77.5429 70.7338 76.648 70.509 75.8081C70.2841 74.9681 69.7357 74.2514 68.9837 73.8147C67.5578 72.9916 65.7691 73.3778 64.7772 74.635L58.8812 71.2281V56.7709L64.7781 53.3678C65.7691 54.6241 67.5578 55.0084 68.9837 54.1853C69.7357 53.7486 70.2841 53.0319 70.509 52.1919C70.7338 51.352 70.6169 50.4571 70.1838 49.7031C69.7472 48.9513 69.0307 48.4029 68.191 48.1778C67.3512 47.9528 66.4565 48.0694 65.7025 48.5022C64.2775 49.3244 63.7169 51.0672 64.3084 52.5541L58.4116 55.9572L45.8903 48.7291V41.9209C47.4747 41.6903 48.7028 40.3338 48.7028 38.6875C48.7028 36.8809 47.2281 35.4062 45.4216 35.4062ZM45.4216 36.3438C46.7209 36.3438 47.7653 37.3872 47.7653 38.6875C47.7653 39.9878 46.7209 41.0312 45.4216 41.0312C45.1135 41.0322 44.8083 40.9723 44.5235 40.8549C44.2387 40.7374 43.9799 40.5648 43.7621 40.347C43.5442 40.1292 43.3716 39.8704 43.2542 39.5856C43.1368 39.3008 43.0768 38.9956 43.0778 38.6875C43.0778 37.3872 44.1212 36.3438 45.4216 36.3438ZM23.335 49.0037C23.785 48.9728 24.25 49.0712 24.6719 49.315C24.939 49.4682 25.1733 49.6727 25.3611 49.9167C25.5489 50.1608 25.6866 50.4396 25.7662 50.737C25.8459 51.0345 25.8659 51.3448 25.8251 51.65C25.7844 51.9553 25.6836 52.2495 25.5287 52.5156C25.3756 52.7829 25.1712 53.0172 24.9272 53.2051C24.6832 53.393 24.4045 53.5309 24.107 53.6107C23.8096 53.6905 23.4993 53.7107 23.194 53.6701C22.8887 53.6296 22.5944 53.5291 22.3281 53.3744C22.0608 53.2211 21.8265 53.0165 21.6385 52.7723C21.4506 52.5282 21.3127 52.2493 21.2329 51.9517C21.1531 51.6541 21.1329 51.3436 21.1735 51.0382C21.2141 50.7327 21.3146 50.4383 21.4694 50.1719C21.6604 49.8389 21.9306 49.5581 22.256 49.3543C22.5814 49.1506 22.952 49.0302 23.335 49.0037ZM67.5072 49.0037C68.2572 49.0562 68.9669 49.4678 69.3728 50.1719C69.5276 50.4383 69.6282 50.7326 69.6688 51.038C69.7095 51.3434 69.6894 51.6539 69.6097 51.9515C69.5299 52.2491 69.3922 52.528 69.2043 52.7722C69.0165 53.0164 68.7822 53.221 68.515 53.3744C67.3891 54.0241 65.9641 53.6416 65.3144 52.5156C65.1595 52.2495 65.0587 51.9553 65.018 51.65C64.9772 51.3448 64.9972 51.0345 65.0769 50.737C65.1565 50.4396 65.2942 50.1608 65.482 49.9167C65.6699 49.6727 65.9041 49.4682 66.1712 49.315C66.5931 49.0712 67.0581 48.9728 67.5072 49.0037ZM45.4216 49.5419L57.9437 56.77V71.2309L45.4216 78.4581L32.8984 71.2291V56.7691L45.4216 49.5419ZM23.665 74.3162C24.415 74.3688 25.1247 74.7803 25.5306 75.4844C25.6856 75.7507 25.7863 76.045 25.8271 76.3504C25.8679 76.6558 25.8479 76.9662 25.7683 77.2638C25.6886 77.5615 25.5509 77.8404 25.3631 78.0846C25.1752 78.3289 24.941 78.5335 24.6737 78.6869C24.4073 78.8416 24.1129 78.9422 23.8075 78.9827C23.502 79.0233 23.1916 79.0031 22.894 78.9233C22.5963 78.8435 22.3174 78.7057 22.0733 78.5177C21.8291 78.3298 21.6245 78.0954 21.4712 77.8281C21.3166 77.5618 21.216 77.2676 21.1755 76.9623C21.1349 76.657 21.1551 76.3467 21.2349 76.0492C21.3148 75.7517 21.4526 75.473 21.6405 75.229C21.8285 74.985 22.0628 74.7806 22.33 74.6275C22.7338 74.3925 23.1989 74.2841 23.665 74.3162ZM67.1781 74.3162C67.6281 74.2853 68.0922 74.3837 68.515 74.6275C68.7822 74.7807 69.0164 74.9852 69.2042 75.2292C69.392 75.4733 69.5297 75.7521 69.6094 76.0495C69.689 76.347 69.709 76.6573 69.6683 76.9625C69.6275 77.2678 69.5268 77.562 69.3719 77.8281C69.2188 78.0954 69.0143 78.3297 68.7704 78.5176C68.5264 78.7055 68.2476 78.8434 67.9502 78.9232C67.6527 79.003 67.3424 79.0232 67.0371 78.9826C66.7318 78.9421 66.4376 78.8416 66.1712 78.6869C65.904 78.5336 65.6696 78.329 65.4816 78.0848C65.2937 77.8407 65.1558 77.5618 65.076 77.2642C64.9962 76.9666 64.976 76.6561 65.0166 76.3507C65.0572 76.0452 65.1578 75.7508 65.3125 75.4844C65.5035 75.1514 65.7737 74.8706 66.0991 74.6668C66.4245 74.4631 66.7951 74.3427 67.1781 74.3162ZM45.4216 86.9688C46.7209 86.9688 47.7653 88.0122 47.7653 89.3125C47.7653 90.6128 46.7209 91.6562 45.4216 91.6562C45.1135 91.6572 44.8083 91.5973 44.5235 91.4799C44.2387 91.3624 43.9799 91.1898 43.7621 90.972C43.5442 90.7542 43.3716 90.4954 43.2542 90.2106C43.1368 89.9258 43.0768 89.6206 43.0778 89.3125C43.0778 88.0122 44.1212 86.9688 45.4216 86.9688Z" stroke="#EFCB68" stroke-width="3" mask="url(#path-2-outside-1_1_2)"/>
</g>
</g>
<defs>
<clipPath id="clip0_1_2">
<rect width="60" height="60" fill="white" transform="translate(16 34)"/>
</clipPath>
<clipPath id="clip1_1_2">
<rect width="60" height="60" fill="white" transform="translate(16 34)"/>
</clipPath>
</defs>
</svg>
